<?xml version="1.0" encoding="UTF-8"?><svg width="249.88" height="74.222" version="1.1" viewBox="0 0 249.88 74.222374" xml:space="preserve" xmlns="http://www.w3.org/2000/svg"><g transform="matrix(1.25 0 0 -1.25 0 74.222)"><g transform="translate(190.41 29.688)"><path d="m0 0c0-12.428-10.076-22.502-22.5-22.502-12.43 0-22.504 10.074-22.504 22.502s10.074 22.5 22.504 22.5c12.424 0 22.5-10.072 22.5-22.5z" fill="none" stroke="#fff" stroke-miterlimit="10"/></g><g transform="translate(122.45 29.688)"><path d="m0 0c0-12.428-10.074-22.502-22.497-22.502-12.43 0-22.503 10.074-22.503 22.502s10.073 22.5 22.503 22.5c12.423 0 22.497-10.072 22.497-22.5z" fill="none" stroke="#fff" stroke-miterlimit="10"/></g><g transform="translate(54.497 29.688)"><path d="m0 0c0-12.428-10.073-22.502-22.5-22.502-12.429 0-22.502 10.074-22.502 22.502s10.073 22.5 22.502 22.5c12.427 0 22.5-10.072 22.5-22.5z" fill="none" stroke="#fff" stroke-miterlimit="10"/></g><g transform="translate(179.67 36.997)"><path d="m0 0c-0.832-0.404-1.715-0.662-2.652-0.783 0.955 0.615 1.687 1.582 2.033 2.742-0.891-0.566-1.877-0.969-2.93-1.207-0.84 0.969-2.043 1.572-3.365 1.572-2.547 0-4.609-2.219-4.609-4.965 0-0.382 0.039-0.763 0.115-1.123-3.822 0.198-7.227 2.18-9.5 5.18-0.397-0.732-0.623-1.584-0.623-2.498 0-1.717 0.812-3.244 2.052-4.121-0.755 0.029-1.468 0.24-2.087 0.617v-0.068c0-2.401 1.587-4.405 3.695-4.869-0.385-0.114-0.793-0.165-1.217-0.165-0.297 0-0.578 0.022-0.863 0.09 0.584-1.98 2.291-3.418 4.306-3.447-1.578-1.34-3.566-2.123-5.726-2.123-0.371 0-0.742 0.022-1.1 0.068 2.041-1.414 4.457-2.238 7.065-2.238 8.48 0 13.123 7.567 13.123 14.125 0 0.207-6e-3 0.42-0.018 0.633 0.899 0.711 1.682 1.586 2.301 2.58" fill="#fff"/></g><g transform="translate(100.85 33.852)"><path d="m0 0v2.322c0 0.871 0.578 1.076 0.986 1.076h2.496v3.834l-3.439 0.014c-3.822 0-4.689-2.861-4.689-4.689v-2.557h-2.211v-3.951h2.211v-11.184h4.646v11.184h3.135l0.406 3.951h-3.541z" fill="#fff"/></g><g transform="translate(38.427 40.171)"><path d="m0 0h-12.861c-2.235 0-4.051-1.816-4.051-4.051v-4.281-8.584c0-2.232 1.816-4.051 4.051-4.051h12.861c2.234 0 4.052 1.819 4.052 4.051v8.584 4.281c0 2.235-1.818 4.051-4.052 4.051m1.163-2.416 0.464 2e-3v-0.461-3.096l-3.544-9e-3 -0.012 3.554 3.092 0.01zm-10.585-5.916c0.67 0.932 1.76 1.541 2.992 1.541 1.231 0 2.323-0.609 2.992-1.541 0.437-0.606 0.699-1.348 0.699-2.152 0-2.034-1.657-3.688-3.691-3.688-2.036 0-3.69 1.654-3.69 3.688 0 0.804 0.264 1.546 0.698 2.152m11.432-8.584c0-1.107-0.9-2.008-2.01-2.008h-12.861c-1.109 0-2.01 0.901-2.01 2.008v8.584h3.131c-0.271-0.664-0.421-1.389-0.421-2.152 0-3.159 2.569-5.733 5.731-5.733 3.16 0 5.732 2.574 5.732 5.733 0 0.763-0.154 1.488-0.423 2.152h3.131v-8.584z" fill="#fff"/></g></g></svg>